<svg width="52" height="26" viewBox="0 0 52 26" fill="none" xmlns="http://www.w3.org/2000/svg">
<path d="M13.5 16.6833C12.45 16.6833 11.55 16.3222 10.8 15.6C10.05 14.8778 9.675 14.0111 9.675 13C9.675 11.9889 10.05 11.1222 10.8 10.4C11.55 9.67778 12.45 9.31667 13.5 9.31667C14.55 9.31667 15.45 9.67778 16.2 10.4C16.95 11.1222 17.325 11.9889 17.325 13C17.325 14.0111 16.95 14.8778 16.2 15.6C15.45 16.3222 14.55 16.6833 13.5 16.6833ZM13.5 26C9.75 26 6.5625 24.7361 3.9375 22.2083C1.3125 19.6806 0 16.6111 0 13C0 9.38889 1.3125 6.31944 3.9375 3.79167C6.5625 1.26389 9.75 0 13.5 0C16.2 0 18.5625 0.613889 20.5875 1.84167C22.6125 3.06944 24.2062 4.92917 25.3687 7.42083H45.3937L51.75 13.5417L42.3563 21.8292L37.4062 18.3625L32.4562 21.8292L28.2375 18.5792H25.3687C24.4312 20.7458 22.9594 22.5243 20.9531 23.9146C18.9469 25.3049 16.4625 26 13.5 26ZM13.5 22.75C15.675 22.75 17.6812 22.0549 19.5187 20.6646C21.3562 19.2743 22.5375 17.4958 23.0625 15.3292H29.475L32.5125 17.7667L37.4625 14.3542L42.075 17.7125L46.8562 13.4333L43.9875 10.6708H23.0625C22.6125 8.64861 21.4875 6.90625 19.6875 5.44375C17.8875 3.98125 15.825 3.25 13.5 3.25C10.6875 3.25 8.29688 4.19792 6.32812 6.09375C4.35938 7.98958 3.375 10.2917 3.375 13C3.375 15.7083 4.35938 18.0104 6.32812 19.9062C8.29688 21.8021 10.6875 22.75 13.5 22.75Z" fill="white"/>
</svg>
